<?xml version="1.0" encoding="UTF-8" standalone="no"?><svg xmlns="http://www.w3.org/2000/svg" xmlns:xlink="http://www.w3.org/1999/xlink" contentScriptType="application/ecmascript" contentStyleType="text/css" height="391px" preserveAspectRatio="none" style="width:378px;height:391px;" version="1.1" viewBox="0 0 378 391" width="378px" zoomAndPan="magnify"><defs><filter height="300%" id="f1lknb9hdqd29j" width="300%" x="-1" y="-1"><feGaussianBlur result="blurOut" stdDeviation="2.0"/><feColorMatrix in="blurOut" result="blurOut2" type="matrix" values="0 0 0 0 0 0 0 0 0 0 0 0 0 0 0 0 0 0 .4 0"/><feOffset dx="4.0" dy="4.0" in="blurOut2" result="blurOut3"/><feBlend in="SourceGraphic" in2="blurOut3" mode="normal"/></filter></defs><g><!--MD5=[d4973a117951818d974fd20d0c16c2e4]
class Configurable--><rect fill="#FEFECE" filter="url(#f1lknb9hdqd29j)" height="48" id="Configurable" style="stroke: #A80036; stroke-width: 1.5;" width="111" x="147" y="8"/><ellipse cx="162" cy="24" fill="#B4A7E5" rx="11" ry="11" style="stroke: #A80036; stroke-width: 1.0;"/><path d="M162.9531,20.7813 L162.9531,27.2969 L164.6719,27.2969 C165.125,27.2969 165.2656,27.3281 165.4375,27.4531 C165.6719,27.625 165.7813,27.875 165.7813,28.1563 C165.7813,28.7188 165.4219,29 164.6719,29 L159.5313,29 C159.125,29 158.9219,28.9531 158.7656,28.8281 C158.5469,28.6719 158.4063,28.4063 158.4063,28.1563 C158.4063,27.8594 158.5625,27.5781 158.8125,27.4219 C158.9688,27.3125 159.0938,27.2969 159.5313,27.2969 L161.25,27.2969 L161.25,20.7813 L159.5313,20.7813 C159.1094,20.7813 158.9219,20.75 158.7656,20.6406 C158.5469,20.4688 158.4063,20.2188 158.4063,19.9375 C158.4063,19.6563 158.5625,19.3594 158.8125,19.2031 C158.9688,19.1094 159.0938,19.0938 159.5313,19.0938 L164.6719,19.0938 C165.125,19.0938 165.2656,19.125 165.4375,19.2344 C165.6719,19.4063 165.7813,19.6719 165.7813,19.9375 C165.7813,20.2344 165.6406,20.5156 165.375,20.6719 C165.25,20.75 165.0625,20.7813 164.6719,20.7813 Z "/><text fill="#000000" font-family="sans-serif" font-size="12" font-style="italic" lengthAdjust="spacingAndGlyphs" textLength="79" x="176" y="28.1543">Configurable</text><line style="stroke: #A80036; stroke-width: 1.5;" x1="148" x2="257" y1="40" y2="40"/><line style="stroke: #A80036; stroke-width: 1.5;" x1="148" x2="257" y1="48" y2="48"/><!--MD5=[270caa8b8de5276e3ba92fc2dd778165]
class RemotingServer--><rect fill="#FEFECE" filter="url(#f1lknb9hdqd29j)" height="48" id="RemotingServer" style="stroke: #A80036; stroke-width: 1.5;" width="131" x="58" y="116"/><ellipse cx="73" cy="132" fill="#B4A7E5" rx="11" ry="11" style="stroke: #A80036; stroke-width: 1.0;"/><path d="M73.9531,128.7813 L73.9531,135.2969 L75.6719,135.2969 C76.125,135.2969 76.2656,135.3281 76.4375,135.4531 C76.6719,135.625 76.7813,135.875 76.7813,136.1563 C76.7813,136.7188 76.4219,137 75.6719,137 L70.5313,137 C70.125,137 69.9219,136.9531 69.7656,136.8281 C69.5469,136.6719 69.4063,136.4063 69.4063,136.1563 C69.4063,135.8594 69.5625,135.5781 69.8125,135.4219 C69.9688,135.3125 70.0938,135.2969 70.5313,135.2969 L72.25,135.2969 L72.25,128.7813 L70.5313,128.7813 C70.1094,128.7813 69.9219,128.75 69.7656,128.6406 C69.5469,128.4688 69.4063,128.2188 69.4063,127.9375 C69.4063,127.6563 69.5625,127.3594 69.8125,127.2031 C69.9688,127.1094 70.0938,127.0938 70.5313,127.0938 L75.6719,127.0938 C76.125,127.0938 76.2656,127.125 76.4375,127.2344 C76.6719,127.4063 76.7813,127.6719 76.7813,127.9375 C76.7813,128.2344 76.6406,128.5156 76.375,128.6719 C76.25,128.75 76.0625,128.7813 75.6719,128.7813 Z "/><text fill="#000000" font-family="sans-serif" font-size="12" font-style="italic" lengthAdjust="spacingAndGlyphs" textLength="99" x="87" y="136.1543">RemotingServer</text><line style="stroke: #A80036; stroke-width: 1.5;" x1="59" x2="188" y1="148" y2="148"/><line style="stroke: #A80036; stroke-width: 1.5;" x1="59" x2="188" y1="156" y2="156"/><!--MD5=[fe3677ebdadb52a0352a572cb6f7c82e]
class BoltClient--><rect fill="#FEFECE" filter="url(#f1lknb9hdqd29j)" height="48" id="BoltClient" style="stroke: #A80036; stroke-width: 1.5;" width="91" x="237" y="116"/><ellipse cx="252" cy="132" fill="#B4A7E5" rx="11" ry="11" style="stroke: #A80036; stroke-width: 1.0;"/><path d="M252.9531,128.7813 L252.9531,135.2969 L254.6719,135.2969 C255.125,135.2969 255.2656,135.3281 255.4375,135.4531 C255.6719,135.625 255.7813,135.875 255.7813,136.1563 C255.7813,136.7188 255.4219,137 254.6719,137 L249.5313,137 C249.125,137 248.9219,136.9531 248.7656,136.8281 C248.5469,136.6719 248.4063,136.4063 248.4063,136.1563 C248.4063,135.8594 248.5625,135.5781 248.8125,135.4219 C248.9688,135.3125 249.0938,135.2969 249.5313,135.2969 L251.25,135.2969 L251.25,128.7813 L249.5313,128.7813 C249.1094,128.7813 248.9219,128.75 248.7656,128.6406 C248.5469,128.4688 248.4063,128.2188 248.4063,127.9375 C248.4063,127.6563 248.5625,127.3594 248.8125,127.2031 C248.9688,127.1094 249.0938,127.0938 249.5313,127.0938 L254.6719,127.0938 C255.125,127.0938 255.2656,127.125 255.4375,127.2344 C255.6719,127.4063 255.7813,127.6719 255.7813,127.9375 C255.7813,128.2344 255.6406,128.5156 255.375,128.6719 C255.25,128.75 255.0625,128.7813 254.6719,128.7813 Z "/><text fill="#000000" font-family="sans-serif" font-size="12" font-style="italic" lengthAdjust="spacingAndGlyphs" textLength="59" x="266" y="136.1543">BoltClient</text><line style="stroke: #A80036; stroke-width: 1.5;" x1="238" x2="327" y1="148" y2="148"/><line style="stroke: #A80036; stroke-width: 1.5;" x1="238" x2="327" y1="156" y2="156"/><!--MD5=[ccd287cd1cc083d0c6be820018862d45]
class AbstractRemotingServer--><rect fill="#FEFECE" filter="url(#f1lknb9hdqd29j)" height="48" id="AbstractRemotingServer" style="stroke: #A80036; stroke-width: 1.5;" width="183" x="6" y="224"/><ellipse cx="21" cy="240" fill="#A9DCDF" rx="11" ry="11" style="stroke: #A80036; stroke-width: 1.0;"/><path d="M22.5781,241.8125 L18.5313,241.8125 L18.1406,242.7969 L18.5313,242.7969 C18.9844,242.7969 19.125,242.8281 19.2969,242.9531 C19.5156,243.125 19.6406,243.375 19.6406,243.6563 C19.6406,243.9375 19.5,244.2344 19.2344,244.375 C19.1094,244.4688 18.8906,244.5 18.5313,244.5 L16.2656,244.5 C15.5156,244.5 15.1406,244.2188 15.1406,243.6563 C15.1406,243.3594 15.2969,243.0781 15.5469,242.9219 C15.7031,242.8125 15.8594,242.7969 16.2813,242.7969 L18.9219,236.2813 L17.8438,236.2813 C17.4063,236.2813 17.2344,236.25 17.0625,236.1406 C16.8438,235.9688 16.7031,235.7188 16.7031,235.4375 C16.7031,235.1563 16.8594,234.875 17.1094,234.7031 C17.2656,234.6094 17.3906,234.5938 17.8438,234.5938 L21.5156,234.5938 L24.9063,242.7969 C25.375,242.7969 25.5313,242.8281 25.7031,242.9688 C25.9219,243.125 26.0625,243.375 26.0625,243.6563 C26.0625,243.9375 25.9063,244.2344 25.6563,244.375 C25.5156,244.4688 25.2969,244.5 24.9375,244.5 L22.5781,244.5 C22.1563,244.5 21.9531,244.4531 21.8125,244.3281 C21.5938,244.1719 21.4531,243.9219 21.4531,243.6563 C21.4531,243.3594 21.6094,243.0781 21.8594,242.9219 C22.0156,242.8125 22.125,242.7969 22.5781,242.7969 L22.9688,242.7969 Z M21.875,240.1094 L20.5469,236.8438 L19.2031,240.1094 Z "/><text fill="#000000" font-family="sans-serif" font-size="12" font-style="italic" lengthAdjust="spacingAndGlyphs" textLength="151" x="35" y="244.1543">AbstractRemotingServer</text><line style="stroke: #A80036; stroke-width: 1.5;" x1="7" x2="188" y1="256" y2="256"/><line style="stroke: #A80036; stroke-width: 1.5;" x1="7" x2="188" y1="264" y2="264"/><!--MD5=[ffc8b69c619968706dc0e20fbaebc008]
class AbstractBoltClient--><rect fill="#FEFECE" filter="url(#f1lknb9hdqd29j)" height="48" id="AbstractBoltClient" style="stroke: #A80036; stroke-width: 1.5;" width="143" x="224" y="224"/><ellipse cx="239" cy="240" fill="#A9DCDF" rx="11" ry="11" style="stroke: #A80036; stroke-width: 1.0;"/><path d="M240.5781,241.8125 L236.5313,241.8125 L236.1406,242.7969 L236.5313,242.7969 C236.9844,242.7969 237.125,242.8281 237.2969,242.9531 C237.5156,243.125 237.6406,243.375 237.6406,243.6563 C237.6406,243.9375 237.5,244.2344 237.2344,244.375 C237.1094,244.4688 236.8906,244.5 236.5313,244.5 L234.2656,244.5 C233.5156,244.5 233.1406,244.2188 233.1406,243.6563 C233.1406,243.3594 233.2969,243.0781 233.5469,242.9219 C233.7031,242.8125 233.8594,242.7969 234.2813,242.7969 L236.9219,236.2813 L235.8438,236.2813 C235.4063,236.2813 235.2344,236.25 235.0625,236.1406 C234.8438,235.9688 234.7031,235.7188 234.7031,235.4375 C234.7031,235.1563 234.8594,234.875 235.1094,234.7031 C235.2656,234.6094 235.3906,234.5938 235.8438,234.5938 L239.5156,234.5938 L242.9063,242.7969 C243.375,242.7969 243.5313,242.8281 243.7031,242.9688 C243.9219,243.125 244.0625,243.375 244.0625,243.6563 C244.0625,243.9375 243.9063,244.2344 243.6563,244.375 C243.5156,244.4688 243.2969,244.5 242.9375,244.5 L240.5781,244.5 C240.1563,244.5 239.9531,244.4531 239.8125,244.3281 C239.5938,244.1719 239.4531,243.9219 239.4531,243.6563 C239.4531,243.3594 239.6094,243.0781 239.8594,242.9219 C240.0156,242.8125 240.125,242.7969 240.5781,242.7969 L240.9688,242.7969 Z M239.875,240.1094 L238.5469,236.8438 L237.2031,240.1094 Z "/><text fill="#000000" font-family="sans-serif" font-size="12" font-style="italic" lengthAdjust="spacingAndGlyphs" textLength="111" x="253" y="244.1543">AbstractBoltClient</text><line style="stroke: #A80036; stroke-width: 1.5;" x1="225" x2="366" y1="256" y2="256"/><line style="stroke: #A80036; stroke-width: 1.5;" x1="225" x2="366" y1="264" y2="264"/><!--MD5=[6c96b193ebefdf5e53500d3e2a156c12]
class RpcServer--><rect fill="#FEFECE" filter="url(#f1lknb9hdqd29j)" height="48" id="RpcServer" style="stroke: #A80036; stroke-width: 1.5;" width="95" x="50" y="332"/><ellipse cx="65" cy="348" fill="#ADD1B2" rx="11" ry="11" style="stroke: #A80036; stroke-width: 1.0;"/><path d="M67.3438,343.6719 L67.5156,343.75 C67.7344,343.4375 67.9375,343.3438 68.2344,343.3438 C68.5313,343.3438 68.8125,343.4844 68.9688,343.75 C69.0625,343.9063 69.0781,344.0313 69.0781,344.4688 L69.0781,345.8906 C69.0781,346.3125 69.0469,346.5 68.9375,346.6563 C68.7656,346.875 68.5,347.0156 68.2344,347.0156 C68.0156,347.0156 67.7813,346.9063 67.6406,346.7656 C67.5,346.6406 67.4688,346.5156 67.4063,346.1094 C67.3125,345.7031 67.1406,345.4844 66.6563,345.2031 C66.1875,344.9531 65.5781,344.7969 65,344.7969 C63.2656,344.7969 62.0156,346.1094 62.0156,347.8906 L62.0156,348.9844 C62.0156,350.6875 63.3125,351.7813 65.3594,351.7813 C66.125,351.7813 66.8125,351.6563 67.2344,351.3906 C67.4219,351.2969 67.4219,351.2969 67.875,350.8125 C68.0625,350.625 68.2656,350.5469 68.4844,350.5469 C68.9531,350.5469 69.3438,350.9375 69.3438,351.3906 C69.3438,351.7813 69.0156,352.2344 68.4375,352.6406 C67.6875,353.1875 66.5313,353.4844 65.3125,353.4844 C62.4219,353.4844 60.3125,351.5938 60.3125,349.0156 L60.3125,347.8906 C60.3125,345.1719 62.3125,343.0938 64.9375,343.0938 C65.8125,343.0938 66.4063,343.2344 67.3438,343.6719 Z "/><text fill="#000000" font-family="sans-serif" font-size="12" lengthAdjust="spacingAndGlyphs" textLength="63" x="79" y="352.1543">RpcServer</text><line style="stroke: #A80036; stroke-width: 1.5;" x1="51" x2="144" y1="364" y2="364"/><line style="stroke: #A80036; stroke-width: 1.5;" x1="51" x2="144" y1="372" y2="372"/><!--MD5=[b26ebdb71938a6ab7e38fec00c4d1e56]
class RpcClient--><rect fill="#FEFECE" filter="url(#f1lknb9hdqd29j)" height="48" id="RpcClient" style="stroke: #A80036; stroke-width: 1.5;" width="90" x="250.5" y="332"/><ellipse cx="265.5" cy="348" fill="#ADD1B2" rx="11" ry="11" style="stroke: #A80036; stroke-width: 1.0;"/><path d="M267.8438,343.6719 L268.0156,343.75 C268.2344,343.4375 268.4375,343.3438 268.7344,343.3438 C269.0313,343.3438 269.3125,343.4844 269.4688,343.75 C269.5625,343.9063 269.5781,344.0313 269.5781,344.4688 L269.5781,345.8906 C269.5781,346.3125 269.5469,346.5 269.4375,346.6563 C269.2656,346.875 269,347.0156 268.7344,347.0156 C268.5156,347.0156 268.2813,346.9063 268.1406,346.7656 C268,346.6406 267.9688,346.5156 267.9063,346.1094 C267.8125,345.7031 267.6406,345.4844 267.1563,345.2031 C266.6875,344.9531 266.0781,344.7969 265.5,344.7969 C263.7656,344.7969 262.5156,346.1094 262.5156,347.8906 L262.5156,348.9844 C262.5156,350.6875 263.8125,351.7813 265.8594,351.7813 C266.625,351.7813 267.3125,351.6563 267.7344,351.3906 C267.9219,351.2969 267.9219,351.2969 268.375,350.8125 C268.5625,350.625 268.7656,350.5469 268.9844,350.5469 C269.4531,350.5469 269.8438,350.9375 269.8438,351.3906 C269.8438,351.7813 269.5156,352.2344 268.9375,352.6406 C268.1875,353.1875 267.0313,353.4844 265.8125,353.4844 C262.9219,353.4844 260.8125,351.5938 260.8125,349.0156 L260.8125,347.8906 C260.8125,345.1719 262.8125,343.0938 265.4375,343.0938 C266.3125,343.0938 266.9063,343.2344 267.8438,343.6719 Z "/><text fill="#000000" font-family="sans-serif" font-size="12" lengthAdjust="spacingAndGlyphs" textLength="58" x="279.5" y="352.1543">RpcClient</text><line style="stroke: #A80036; stroke-width: 1.5;" x1="251.5" x2="339.5" y1="364" y2="364"/><line style="stroke: #A80036; stroke-width: 1.5;" x1="251.5" x2="339.5" y1="372" y2="372"/><!--MD5=[1dc8487bb1b0c403d148da56b0046871]
reverse link Configurable to RemotingServer--><path d="M173.301,72.178 C162.404,86.8 150.383,102.929 140.881,115.678 " fill="none" id="Configurable&lt;-RemotingServer" style="stroke: #A80036; stroke-width: 1.0;"/><polygon fill="none" points="167.794,67.854,185.358,56,179.019,76.22,167.794,67.854" style="stroke: #A80036; stroke-width: 1.0;"/><!--MD5=[d0dca1de7495a0acc4853be41dff5792]
reverse link Configurable to BoltClient--><path d="M232.069,72.178 C243.103,86.8 255.277,102.929 264.899,115.678 " fill="none" id="Configurable&lt;-BoltClient" style="stroke: #A80036; stroke-width: 1.0;"/><polygon fill="none" points="226.32,76.181,219.859,56,237.494,67.747,226.32,76.181" style="stroke: #A80036; stroke-width: 1.0;"/><!--MD5=[519d436b1fb365a5c06c2c6b536576fc]
reverse link RemotingServer to AbstractRemotingServer--><path d="M113.066,183.54 C109.707,197.235 106.11,211.9 103.2204,223.678 " fill="none" id="RemotingServer&lt;-AbstractRemotingServer" style="stroke: #A80036; stroke-width: 1.0; stroke-dasharray: 7.0,7.0;"/><polygon fill="none" points="106.295,181.757,117.858,164,119.892,185.092,106.295,181.757" style="stroke: #A80036; stroke-width: 1.0;"/><!--MD5=[54aa175e83cde897c2d267b4168596e6]
reverse link BoltClient to AbstractBoltClient--><path d="M287.776,184.024 C289.439,197.579 291.212,212.038 292.64,223.678 " fill="none" id="BoltClient&lt;-AbstractBoltClient" style="stroke: #A80036; stroke-width: 1.0; stroke-dasharray: 7.0,7.0;"/><polygon fill="none" points="280.808,184.704,285.321,164,294.703,183,280.808,184.704" style="stroke: #A80036; stroke-width: 1.0;"/><!--MD5=[86db39bcfd22b50011f3d7230a6c54e6]
reverse link AbstractRemotingServer to RpcServer--><path d="M97.5,292.0236 C97.5,305.5792 97.5,320.0381 97.5,331.6784 " fill="none" id="AbstractRemotingServer&lt;-RpcServer" style="stroke: #A80036; stroke-width: 1.0;"/><polygon fill="none" points="90.5001,292.0005,97.5,272,104.5001,292.0004,90.5001,292.0005" style="stroke: #A80036; stroke-width: 1.0;"/><!--MD5=[c81dcc9b76c6622bd7f3bdf8bbe05a87]
reverse link AbstractBoltClient to RpcClient--><path d="M295.5,292.0236 C295.5,305.5792 295.5,320.0381 295.5,331.6784 " fill="none" id="AbstractBoltClient&lt;-RpcClient" style="stroke: #A80036; stroke-width: 1.0;"/><polygon fill="none" points="288.5,292.0005,295.5,272,302.5,292.0004,288.5,292.0005" style="stroke: #A80036; stroke-width: 1.0;"/><!--MD5=[f3dfa5636eb43fc0dd1348c4557c0f7e]
@startuml
interface Configurable
interface RemotingServer
interface BoltClient

abstract AbstractRemotingServer
abstract AbstractBoltClient

Configurable <|- - RemotingServer
Configurable <|- - BoltClient

RemotingServer <|.. AbstractRemotingServer
BoltClient <|.. AbstractBoltClient

AbstractRemotingServer <|- - RpcServer
AbstractBoltClient <|- - RpcClient
@enduml

PlantUML version 1.2019.12(Sun Nov 03 10:24:54 UTC 2019)
(GPL source distribution)
Java Runtime: Java(TM) SE Runtime Environment
JVM: Java HotSpot(TM) 64-Bit Server VM
Java Version: 1.7.0_25-b15
Operating System: Linux
Default Encoding: UTF-8
Language: en
Country: US
--></g></svg>